<svg xmlns="http://www.w3.org/2000/svg" width="100" height="48" viewBox="0 0 100 48">
    <g fill="none" fill-rule="evenodd">
        <g fill-rule="nonzero">
            <g>
                <path fill="#00C1BC" d="M69 10.91C65.798 4.617 61.81 0 55.828 0 46.34 0 41.87 11.69 37.58 22.96c-3.927 10.312-8.036 20.983-15.408 20.983-4.048 0-7.07-3.238-9.667-7.854H9C12.202 42.384 16.19 47 22.172 47 31.66 47 36.13 35.31 40.42 24.04c3.927-10.312 8.036-20.983 15.408-20.983 4.048 0 7.07 3.238 9.667 7.854H69z" transform="translate(-48 -592) translate(48 592)"/>
                <path fill="#FFF" d="M33.88 24.826c.06-.422.12-.904.12-1.326 0-.422-.06-.904-.12-1.326C33.222 18.134 29.75 15 25.5 15c-2.873 0-5.387 1.447-6.944 3.617-.718 1.025-1.197 2.23-1.436 3.557-.06.422-.12.904-.12 1.326 0 .422.06.904.12 1.326.658 4.04 4.13 7.174 8.38 7.174 2.873 0 5.387-1.447 6.944-3.617l-2.514-1.748c-.958 1.386-2.574 2.35-4.43 2.35-2.514 0-4.61-1.747-5.208-4.098H33.88v-.06zm-13.588-2.652c.18-.663.42-1.266.838-1.748.958-1.387 2.574-2.352 4.43-2.352 2.514 0 4.609 1.749 5.208 4.1H20.292zM97.395 26.635c-.992 1.386-2.666 2.35-4.589 2.35-1.922 0-3.597-.903-4.589-2.35-.62-.905-.992-1.93-.992-3.135 0-1.145.372-2.23.992-3.135.992-1.386 2.667-2.35 4.59-2.35 1.922 0 3.596.903 4.588 2.35L100 18.617C98.388 16.447 95.783 15 92.806 15c-2.977 0-5.581 1.447-7.194 3.617C84.62 20.004 84 21.691 84 23.5c0 1.809.62 3.496 1.612 4.883C87.225 30.553 89.83 32 92.806 32c2.977 0 5.582-1.447 7.194-3.617l-2.605-1.748zM61.649 15L56.53 27.202 51.412 15 48 15 54.824 31.25 51.168 40 54.52 40 65 15zM13.649 16L8.53 27.971 3.412 16 0 16 6.885 32 10.176 32 17 16zM68.074 32v-8.378c0-3.057 2.472-5.503 5.426-5.503 3.014 0 5.426 2.507 5.426 5.503V32H82v-8.378C82 18.852 78.202 15 73.5 15S65 18.853 65 23.622V32h3.074z" transform="translate(-48 -592) translate(48 592)"/>
            </g>
        </g>
    </g>
</svg>
